<svg clip-rule="evenodd" fill-rule="evenodd" height="512" image-rendering="optimizeQuality" shape-rendering="geometricPrecision" text-rendering="geometricPrecision" viewBox="0 0 43.3492 43.3492" width="512" xmlns="http://www.w3.org/2000/svg"><g id="Layer_x0020_1"><g id="_309816320"><g fill-rule="nonzero"><path id="_309816896" d="m16.8799 30.7208c-.2091 0-.3784-.1682-.3804-.3773l-.1386-18.748c-.0008-.1902.1386-.3521.3268-.3792l16.4007-2.356c.1079-.0158.219.0165.3021.0882.0831.0712.1315.1752.1327.2851l.1374 16.5731c.002.2099-.1662.3816-.3761.3836-.2138.0035-.3823-.1673-.3843-.3772l-.1335-16.1381-15.6423 2.2469.1359 18.4157c.0008.2099-.1674.3816-.3772.3832-.0012 0-.002 0-.0032 0z"/><path id="_309817304" d="m12.4825 25.9729c-2.2142 0-4.0142 1.8012-4.0142 4.0147 0 2.2134 1.8 4.0146 4.0142 4.0146 2.2139 0 4.0142-1.8012 4.0142-4.0146 0-2.2135-1.8003-4.0147-4.0142-4.0147zm0 8.7897c-2.6328 0-4.7746-2.1422-4.7746-4.775 0-2.6329 2.1418-4.7751 4.7746-4.7751s4.7746 2.1422 4.7746 4.7751c0 2.6328-2.1418 4.775-4.7746 4.775z"/><path id="_309817136" d="m28.8832 21.4413c-2.2131 0-4.0146 1.8007-4.0146 4.0146 0 2.2134 1.8015 4.0142 4.0146 4.0142 2.2139 0 4.0142-1.8008 4.0142-4.0142 0-2.2139-1.8003-4.0146-4.0142-4.0146zm0 8.7892c-2.6328 0-4.7746-2.1418-4.7746-4.7746 0-2.6332 2.1418-4.7754 4.7746-4.7754s4.7746 2.1422 4.7746 4.7754c0 2.6328-2.1418 4.7746-4.7746 4.7746z"/><path id="_309816944" d="m16.7673 15.4983c-.1875 0-.3509-.1379-.3765-.3288-.0287-.208.1178-.3997.3257-.4281l16.4054-2.2363c.2071-.0283.3993.1174.4281.3257.0287.2079-.117.3997-.3261.428l-16.4054 2.2363c-.017.0024-.0347.0032-.0512.0032z"/><path id="_309816464" d="m21.6754 2.9011c-10.3514 0-18.7729 8.4219-18.7729 18.7733s8.4215 18.7728 18.7729 18.7728c10.3518 0 18.7717-8.4214 18.7717-18.7728s-8.4199-18.7733-18.7717-18.7733zm0 38.3065c-10.7715 0-19.5336-8.7624-19.5336-19.5332s8.7621-19.5333 19.5336-19.5333c10.7704 0 19.5317 8.7625 19.5317 19.5333s-8.7613 19.5332-19.5317 19.5332z"/><path id="_309816032" d="m21.6754.7605c-11.5327 0-20.9146 9.3819-20.9146 20.9139s9.3819 20.9146 20.9146 20.9146c11.5319 0 20.9138-9.3826 20.9138-20.9146s-9.3819-20.9139-20.9138-20.9139zm0 42.5889c-5.7898 0-11.2327-2.2548-15.3261-6.3486-4.0945-4.0937-6.3493-9.537-6.3493-15.3264s2.2548-11.2323 6.3493-15.3261c4.0934-4.0938 9.5363-6.3486 15.3261-6.3486 5.7886 0 11.2319 2.2548 15.3253 6.3486 4.0961 4.0938 6.3486 9.5367 6.3486 15.3261s-2.2525 11.2327-6.3486 15.3264c-4.0934 4.0938-9.5367 6.3486-15.3253 6.3486z"/></g><path id="_309816536" d="m21.6754.7605c-11.5327 0-20.9146 9.3819-20.9146 20.9139s9.3819 20.9146 20.9146 20.9146c11.5319 0 20.9139-9.3826 20.9139-20.9146s-9.382-20.9139-20.9139-20.9139zm-19.5336 20.9139c0-10.7708 8.7621-19.5333 19.5336-19.5333 10.7704 0 19.5317 8.7625 19.5317 19.5333s-8.7613 19.5333-19.5317 19.5333c-10.7715 0-19.5336-8.7625-19.5336-19.5333z" fill="#81d4fa"/><path id="_309816248" d="m16.4967 29.9876c0-2.2135-1.8003-4.0147-4.0142-4.0147-2.2142 0-4.0142 1.8012-4.0142 4.0147 0 2.2134 1.8 4.0146 4.0142 4.0146 2.2139 0 4.0142-1.8012 4.0142-4.0146z" fill="#e95e5b"/><path id="_309816008" d="m24.8686 25.4559c0 2.2135 1.8016 4.0142 4.0146 4.0142 2.2073 0 4.0037-1.7902 4.0142-3.9947l.0001-.0195-.001-.087c0-.0002 0-.0004 0-.0005-.0467-2.1736-1.8287-3.9271-4.0133-3.9271-2.213 0-4.0146 1.8007-4.0146 4.0146z" fill="#e95e5b"/><g fill="#e0f6ff"><path id="_309815864" d="m17.1448 14.683 15.6457-2.1327-.0238-2.8753-15.6423 2.2469z"/><path id="_309816104" d="m16.6877 11.2163 16.4007-2.356c.1079-.0158.219.0165.3021.0882.083.0712.1315.1752.1327.2851l.0301 3.6364c.0003.0067.0003.0134.0002.0201l.1034 12.4691c.0006.0322.0009.0644.0009.0967v.0162l.0028.3346c.0005.0528-.0097.1032-.0287.149-.2507 2.3988-2.2846 4.2748-4.7487 4.2748-2.6328 0-4.7746-2.1418-4.7746-4.7746 0-2.6333 2.1418-4.7754 4.7746-4.7754 1.6676 0 3.1382.8594 3.9924 2.1587l-.0788-9.5221-15.6463 2.1328.1098 14.8877c.0002.0523-.0101.1023-.0289.1478-.2497 2.3998-2.2841 4.2772-4.7489 4.2772-2.6328 0-4.7746-2.1422-4.7746-4.775 0-2.6329 2.1418-4.7751 4.7746-4.7751 1.6694 0 3.1413.8612 3.995 2.1626l-.1166-15.7796c-.0008-.1902.1386-.3521.3268-.3792zm-13.7852 10.4581c0 10.3514 8.4215 18.7728 18.7729 18.7728 10.3518 0 18.7717-8.4214 18.7717-18.7728s-8.4199-18.7733-18.7717-18.7733c-10.3514 0-18.7729 8.4219-18.7729 18.7733z"/></g></g></g></svg>